<svg width="150" height="44" viewBox="0 0 150 44" fill="none" xmlns="http://www.w3.org/2000/svg">
    <g clip-path="url(#clip0_231_294)">
        <path d="M36 0H8C3.58172 0 0 3.58172 0 8V36C0 40.4183 3.58172 44 8 44H36C40.4183 44 44 40.4183 44 36V8C44 3.58172 40.4183 0 36 0Z"
              fill="#DEB6E3"/>
        <path fill-rule="evenodd" clip-rule="evenodd"
              d="M19.4974 24.7354L19.573 24.7931C19.6588 24.8625 19.7499 24.9401 19.8466 25.0264C19.7368 24.9534 19.6207 24.8564 19.4998 24.7381L19.4974 24.7354Z"
              fill="#995DC9"/>
        <g filter="url(#filter0_f_231_294)">
            <path fill-rule="evenodd" clip-rule="evenodd"
                  d="M10.4999 24.8626C9.81758 24.8626 9.26446 25.4158 9.26446 26.0983V29.3572C9.26446 30.0396 9.81758 30.5928 10.4999 30.5928H13.7582C14.4405 30.5928 14.9936 30.0396 14.9936 29.3572V26.0983C14.9936 25.4158 14.4405 24.8626 13.7582 24.8626H10.4999ZM5.53253 8.58398H8.23846C8.8051 8.58398 9.26446 9.04343 9.26446 9.61018V20.0978H16.4734C18.2904 20.0978 19.7634 21.5711 19.7634 23.3884V32.067C19.7634 33.8844 18.2904 35.3576 16.4734 35.3576H7.79651C5.97951 35.3576 4.50653 33.8844 4.50653 32.067V25.6901V23.3884V9.61018C4.50653 9.04343 4.96589 8.58398 5.53253 8.58398Z"
                  fill="black" fill-opacity="0.15"/>
        </g>
        <path fill-rule="evenodd" clip-rule="evenodd"
              d="M10.532 24.806C9.86303 24.806 9.32077 25.3484 9.32077 26.0174V29.2124C9.32077 29.8815 9.86303 30.4238 10.532 30.4238H13.7264C14.3953 30.4238 14.9376 29.8815 14.9376 29.2124V26.0174C14.9376 25.3484 14.3953 24.806 13.7264 24.806H10.532ZM5.66201 8.84656H8.31488C8.87041 8.84656 9.32077 9.29698 9.32077 9.85262V20.1346H16.3883C18.1697 20.1346 19.6138 21.579 19.6138 23.3607V31.8692C19.6138 33.6509 18.1697 35.0952 16.3883 35.0952H7.88163C6.10021 35.0952 4.65613 33.6509 4.65613 31.8692V25.6173V23.3607V9.85262C4.65613 9.29698 5.10648 8.84656 5.66201 8.84656Z"
              fill="url(#paint0_radial_231_294)"/>
        <g filter="url(#filter1_f_231_294)">
            <path fill-rule="evenodd" clip-rule="evenodd"
                  d="M20.8015 19.7991C20.1192 19.7991 19.566 20.3524 19.566 21.0348V24.2937C19.566 24.9762 20.1192 25.5294 20.8015 25.5294H24.0597C24.742 25.5294 25.2952 24.9762 25.2952 24.2937V21.0348C25.2952 20.3524 24.742 19.7991 24.0597 19.7991H20.8015ZM26.324 3.52051H29.0299C29.5965 3.52051 30.0559 3.97996 30.0559 4.54671V18.2354L30.0649 18.3249V27.0035C30.0649 28.8209 28.592 30.2942 26.7749 30.2942H18.0981C16.2811 30.2942 14.8081 28.8209 14.8081 27.0035V18.3249C14.8081 16.5076 16.2811 15.0343 18.0981 15.0343H25.298V4.54671C25.298 3.97996 25.7574 3.52051 26.324 3.52051Z"
                  fill="black" fill-opacity="0.15"/>
        </g>
        <path fill-rule="evenodd" clip-rule="evenodd"
              d="M20.8336 19.7425C20.1646 19.7425 19.6223 20.2849 19.6223 20.954V24.149C19.6223 24.818 20.1646 25.3604 20.8336 25.3604H24.0279C24.6968 25.3604 25.2392 24.818 25.2392 24.149V20.954C25.2392 20.2849 24.6968 19.7425 24.0279 19.7425H20.8336ZM26.2478 3.78308H28.9006C29.4562 3.78308 29.9065 4.23352 29.9065 4.78916V18.2095L29.9154 18.2973V26.8057C29.9154 28.5874 28.4713 30.0318 26.6899 30.0318H18.1831C16.4018 30.0318 14.9577 28.5874 14.9577 26.8057V18.2973C14.9577 16.5155 16.4018 15.0711 18.1831 15.0711H25.2419V4.78916C25.2419 4.23352 25.6922 3.78308 26.2478 3.78308Z"
              fill="url(#paint1_linear_231_294)"/>
        <g filter="url(#filter2_f_231_294)">
            <path fill-rule="evenodd" clip-rule="evenodd"
                  d="M30.7839 20.5434C30.2788 20.5434 29.8692 20.9516 29.8692 21.4552V23.8601C29.8692 24.3637 30.2788 24.7719 30.7839 24.7719H34.7505C35.2556 24.7719 35.6652 24.3637 35.6652 23.8601V21.4552C35.6652 20.9516 35.2556 20.5434 34.7505 20.5434H30.7839ZM27.242 17.5907H38.2924C39.5032 17.5907 40.4847 18.5691 40.4847 19.776V25.5393C40.4847 26.7462 39.5032 27.7246 38.2924 27.7246H35.0666L35.0265 27.7165H30.508C30.1552 27.7165 29.8692 28.0016 29.8692 28.3532V29.6972V30.0325C29.8692 30.3842 30.1552 30.6692 30.508 30.6692H31.23L38.9464 30.6693H39.7694C40.1644 30.6693 40.4847 30.9885 40.4847 31.3822V33.2625C40.4847 33.6563 40.1644 33.9755 39.7694 33.9755H37.1511H29.8973H27.1957C26.1587 33.9755 25.2934 33.2422 25.0933 32.2674L25.0497 31.8364V31.8363V25.3429L25.0498 19.776C25.0498 18.5691 26.0313 17.5907 27.242 17.5907Z"
                  fill="black" fill-opacity="0.15"/>
        </g>
        <path fill-rule="evenodd" clip-rule="evenodd"
              d="M30.8228 20.6461C30.3275 20.6461 29.926 21.0464 29.926 21.5401V23.8978C29.926 24.3915 30.3275 24.7918 30.8228 24.7918H34.7116C35.2069 24.7918 35.6083 24.3915 35.6083 23.8978V21.5401C35.6083 21.0464 35.2069 20.6461 34.7116 20.6461H30.8228ZM27.3504 17.7513H38.184C39.371 17.7513 40.3333 18.7106 40.3333 19.8938V25.5441C40.3333 26.7273 39.371 27.6866 38.184 27.6866H35.0215L34.9821 27.6786H30.5522C30.2064 27.6786 29.926 27.9581 29.926 28.3028V29.6205V29.9492C29.926 30.294 30.2064 30.5734 30.5522 30.5734H31.2601H38.8252H39.6321C40.0194 30.5734 40.3333 30.8864 40.3333 31.2724V33.1158C40.3333 33.5019 40.0194 33.8148 39.6321 33.8148H37.0652H29.9536H27.305C26.2882 33.8148 25.44 33.0959 25.2438 32.1403L25.201 31.7177V31.7176V25.3515V19.8938C25.201 18.7106 26.1633 17.7513 27.3504 17.7513Z"
              fill="url(#paint2_radial_231_294)"/>
        <path d="M67.7837 24.952C67.7837 26.2573 67.3217 27.284 66.3977 28.032C65.4737 28.78 64.2784 29.154 62.8117 29.154C61.1837 29.154 59.8344 28.8387 58.7637 28.208V25.854C59.9224 26.7193 61.2644 27.152 62.7897 27.152C63.5964 27.152 64.2344 26.9687 64.7037 26.602C65.173 26.2207 65.4077 25.7 65.4077 25.04C65.4077 24.644 65.2684 24.2847 64.9897 23.962C64.711 23.6247 64.4104 23.3753 64.0877 23.214C63.765 23.038 63.281 22.8033 62.6357 22.51C62.2544 22.334 61.983 22.2093 61.8217 22.136C61.675 22.0627 61.4257 21.9307 61.0737 21.74C60.7217 21.5493 60.4577 21.388 60.2817 21.256C60.1204 21.124 59.915 20.9407 59.6657 20.706C59.4164 20.4713 59.233 20.2367 59.1157 20.002C59.013 19.7673 58.9104 19.496 58.8077 19.188C58.7197 18.8653 58.6757 18.5207 58.6757 18.154C58.6757 16.8927 59.1304 15.8953 60.0397 15.162C60.9637 14.4287 62.1517 14.062 63.6037 14.062C64.9384 14.062 66.075 14.2967 67.0137 14.766V17.01C66.031 16.394 64.9164 16.086 63.6697 16.086C62.863 16.086 62.225 16.2693 61.7557 16.636C61.301 16.988 61.0737 17.4573 61.0737 18.044C61.0737 18.6307 61.301 19.1 61.7557 19.452C62.2104 19.804 62.907 20.1853 63.8457 20.596C64.4617 20.86 64.9384 21.0873 65.2757 21.278C65.6277 21.4687 66.0237 21.74 66.4637 22.092C66.9184 22.4293 67.2484 22.84 67.4537 23.324C67.6737 23.7933 67.7837 24.336 67.7837 24.952ZM79.4764 29H77.3204V27.086C76.7337 28.45 75.575 29.132 73.8444 29.132C72.7444 29.132 71.8717 28.8093 71.2264 28.164C70.581 27.504 70.2584 26.602 70.2584 25.458V17.846H72.4364V24.93C72.4364 25.6927 72.6197 26.2793 72.9864 26.69C73.3677 27.086 73.8884 27.284 74.5484 27.284C75.3844 27.284 76.0517 26.9907 76.5504 26.404C77.0637 25.8173 77.3204 24.9887 77.3204 23.918V17.846H79.4764V29ZM84.7736 29H82.5956V17.846H84.7736V29ZM85.0376 14.436C85.0376 14.8027 84.9056 15.118 84.6416 15.382C84.3776 15.646 84.0549 15.778 83.6736 15.778C83.2922 15.778 82.9696 15.6533 82.7056 15.404C82.4562 15.14 82.3316 14.8173 82.3316 14.436C82.3316 14.0547 82.4562 13.732 82.7056 13.468C82.9696 13.204 83.2922 13.072 83.6736 13.072C84.0549 13.072 84.3776 13.204 84.6416 13.468C84.9056 13.732 85.0376 14.0547 85.0376 14.436ZM93.7521 28.714C93.2681 28.978 92.6741 29.11 91.9701 29.11C89.6675 29.11 88.5161 27.944 88.5161 25.612V19.518H86.7781V17.846H88.5161V15.118H90.6941V17.846H93.6201V19.518H90.6941V25.656C90.6941 26.7267 91.2075 27.262 92.2341 27.262C92.8355 27.262 93.3415 27.1007 93.7521 26.778V28.714ZM104.445 28.406C103.623 28.8753 102.538 29.11 101.189 29.11C99.458 29.11 98.0793 28.5893 97.0527 27.548C96.026 26.5067 95.5127 25.1427 95.5127 23.456C95.5127 21.6667 95.982 20.266 96.9207 19.254C97.8593 18.2273 99.0547 17.714 100.507 17.714C101.929 17.714 103.059 18.1613 103.895 19.056C104.731 19.936 105.149 21.212 105.149 22.884C105.149 23.3387 105.105 23.8153 105.017 24.314H97.6907C97.8373 25.282 98.248 26.0227 98.9227 26.536C99.5973 27.0493 100.448 27.306 101.475 27.306C102.663 27.306 103.653 27.0273 104.445 26.47V28.406ZM100.551 19.496C99.8173 19.496 99.1867 19.7673 98.6587 20.31C98.1307 20.838 97.8007 21.608 97.6687 22.62H103.059V22.224C103.029 21.388 102.802 20.728 102.377 20.244C101.951 19.7453 101.343 19.496 100.551 19.496ZM118.608 29H112.91V14.172H117.772C119.327 14.172 120.551 14.5387 121.446 15.272C122.341 15.9907 122.788 16.944 122.788 18.132C122.788 18.9533 122.553 19.672 122.084 20.288C121.629 20.904 121.043 21.3 120.324 21.476C121.131 21.6227 121.805 21.9967 122.348 22.598C122.905 23.1993 123.184 24.006 123.184 25.018C123.184 26.1913 122.781 27.152 121.974 27.9C121.182 28.6333 120.06 29 118.608 29ZM117.596 16.042H115.176V20.596H117.222C118.322 20.596 119.136 20.376 119.664 19.936C120.207 19.4813 120.478 18.8947 120.478 18.176C120.478 17.5453 120.236 17.032 119.752 16.636C119.283 16.24 118.564 16.042 117.596 16.042ZM117.86 22.444H115.176V27.13H118.08C119.943 27.13 120.874 26.36 120.874 24.82C120.874 24.072 120.617 23.4927 120.104 23.082C119.605 22.6567 118.857 22.444 117.86 22.444ZM130.357 29H125.693V14.172H130.313C132.513 14.172 134.317 14.854 135.725 16.218C137.133 17.582 137.837 19.32 137.837 21.432C137.837 23.632 137.17 25.4433 135.835 26.866C134.515 28.2887 132.689 29 130.357 29ZM130.269 16.108H128.003V27.086H130.335C132.022 27.086 133.305 26.558 134.185 25.502C135.065 24.446 135.505 23.0893 135.505 21.432C135.505 19.9067 135.029 18.638 134.075 17.626C133.122 16.614 131.853 16.108 130.269 16.108ZM148.925 29H140.367V14.172H148.815V16.064H142.633V20.64H148.111V22.532H142.633V27.108H148.925V29Z"
              fill="white"/>
    </g>
    <defs>
        <filter id="filter0_f_231_294" x="4.2478" y="8.32526" width="15.7743" height="27.2911"
                filterUnits="userSpaceOnUse" color-interpolation-filters="sRGB">
            <feFlood flood-opacity="0" result="BackgroundImageFix"/>
            <feBlend mode="normal" in="SourceGraphic" in2="BackgroundImageFix" result="shape"/>
            <feGaussianBlur stdDeviation="0.129364" result="effect1_foregroundBlur_231_294"/>
        </filter>
        <filter id="filter1_f_231_294" x="14.5494" y="3.26178" width="15.7743" height="27.2911"
                filterUnits="userSpaceOnUse" color-interpolation-filters="sRGB">
            <feFlood flood-opacity="0" result="BackgroundImageFix"/>
            <feBlend mode="normal" in="SourceGraphic" in2="BackgroundImageFix" result="shape"/>
            <feGaussianBlur stdDeviation="0.129364" result="effect1_foregroundBlur_231_294"/>
        </filter>
        <filter id="filter2_f_231_294" x="24.791" y="17.332" width="15.9524" height="16.9022"
                filterUnits="userSpaceOnUse" color-interpolation-filters="sRGB">
            <feFlood flood-opacity="0" result="BackgroundImageFix"/>
            <feBlend mode="normal" in="SourceGraphic" in2="BackgroundImageFix" result="shape"/>
            <feGaussianBlur stdDeviation="0.129364" result="effect1_foregroundBlur_231_294"/>
        </filter>
        <radialGradient id="paint0_radial_231_294" cx="0" cy="0" r="1" gradientUnits="userSpaceOnUse"
                        gradientTransform="translate(19.6138 8.84656) scale(30.2113 30.2113)">
            <stop stop-color="#995DC9"/>
            <stop offset="0.6" stop-color="#995DC9"/>
            <stop offset="1" stop-color="#7538C6"/>
        </radialGradient>
        <linearGradient id="paint1_linear_231_294" x1="22.4365" y1="3.78308" x2="22.4365" y2="30.0318"
                        gradientUnits="userSpaceOnUse">
            <stop stop-color="#5A2AB0"/>
            <stop offset="0.75" stop-color="#5A2AB0"/>
            <stop offset="1" stop-color="#301D75"/>
        </linearGradient>
        <radialGradient id="paint2_radial_231_294" cx="0" cy="0" r="1" gradientUnits="userSpaceOnUse"
                        gradientTransform="translate(25.201 17.7513) scale(22.0686)">
            <stop stop-color="#995DC9"/>
            <stop offset="0.6" stop-color="#995DC9"/>
            <stop offset="1" stop-color="#7538C6"/>
        </radialGradient>
        <clipPath id="clip0_231_294">
            <rect width="150" height="44" fill="white"/>
        </clipPath>
    </defs>
</svg>
